<?xml version="1.0" encoding="utf-8"?>
<svg version="1.1" id="Layer_1"
	 xmlns="http://www.w3.org/2000/svg"
	 x="0px" y="0px"
	 viewBox="0 0 20 20" style="enable-background:new 0 0 20 20;" xml:space="preserve">
<style type="text/css">
	.st0{fill:#444444;}
</style>
<path class="st0" d="M11.5,2.5l0.9,3.4l3.4-1l1.5,2.6L14.7,10l2.5,2.5L15.7,15l-3.4-1l-0.9,3.4h-3l-0.9-3.4l-3.4,1l-1.5-2.6L5.3,10
	L2.8,7.5l1.5-2.6l3.4,1l0.9-3.4H11.5 M11.5,0.5h-3C7.6,0.5,6.8,1.1,6.6,2L6.2,3.4L4.8,3C4.6,3,4.4,3,4.3,3C3.6,3,2.9,3.3,2.5,4
	L1,6.6C0.6,7.3,0.7,8.4,1.4,9l1,1l-1,1c-0.7,0.6-0.8,1.6-0.3,2.4l1.5,2.6c0.4,0.6,1,1,1.7,1c0.2,0,0.4,0,0.6-0.1l1.4-0.4L6.6,18
	c0.2,0.9,1,1.5,1.9,1.5h3c0.9,0,1.7-0.6,1.9-1.5l0.4-1.4l1.4,0.4c0.2,0.1,0.4,0.1,0.6,0.1c0.7,0,1.4-0.4,1.7-1l1.5-2.6
	c0.5-0.8,0.3-1.8-0.3-2.4l-1-1l1-1c0.7-0.6,0.8-1.6,0.3-2.4l-1.5-2.6c-0.4-0.6-1-1-1.7-1c-0.2,0-0.4,0-0.6,0.1l-1.4,0.4L13.4,2
	C13.2,1.1,12.4,0.5,11.5,0.5z M10,8c1.1,0,2,0.9,2,2c0,1.1-0.9,2-2,2s-2-0.9-2-2C8,8.9,8.9,8,10,8 M10,7c-1.7,0-3,1.3-3,3s1.3,3,3,3
	s3-1.3,3-3S11.7,7,10,7z"/>
</svg>
